<!-- Generated by IcoMoon.io -->
<svg version="1.1" xmlns="http://www.w3.org/2000/svg" width="1024" height="1024" viewBox="0 0 1024 1024">
<title></title>
<g id="icomoon-ignore">
</g>
<path d="M984.462 322.276c-9.387-89.884-80.782-157.867-173.511-164.978-84.764-6.542-165.831 51.769-188.018 135.68-3.413 13.084-5.689 27.876-6.542 46.649-0.853 14.507-0.569 29.013-0.284 43.236 0 5.973 0.284 12.231 0.284 18.204 0 3.129 2.56 5.689 5.689 5.689h59.449c3.129 0 5.689-2.56 5.689-5.689 0-5.12 0-10.24 0-15.36 0-12.231 0-23.893 0-35.84 0-8.818 0.569-16.498 1.422-23.609 3.413-29.013 19.058-56.32 43.52-74.809 24.747-18.773 55.751-27.022 85.333-22.471 31.004 4.836 58.88 22.187 77.084 47.502 17.636 25.031 24.462 54.898 19.058 84.196-10.524 57.173-56.889 95.573-114.916 95.573-181.76 0-363.804 0-545.564 0h-208.498c-3.129 0-5.689 2.56-5.689 5.689v58.88c0 3.129 2.276 5.404 5.404 5.689 1.138 0 2.276 0.284 3.413 0.284 2.276 0.284 4.267 0.284 6.258 0.284 68.551 0 137.102 0 205.938 0 73.956 0 148.764 0 224.142 0 106.098 0 213.049 0 319.147-0.284 52.907 0 100.978-21.618 135.964-60.587 33.849-38.4 50.916-91.022 45.227-143.929zM718.222 576.284c-158.72 0-317.44 0-476.444 0h-197.689c-3.129 0-5.689 2.56-5.689 5.689v59.449c0 3.129 2.56 5.689 5.689 5.689h624.356c5.404 0 10.809 0 16.213 0 11.947 0 24.178 0 36.124 0 44.942 0.853 81.067 29.298 91.591 72.249 9.956 40.391-8.533 83.058-44.942 103.822-28.729 16.498-63.431 16.498-92.444 0s-46.933-46.080-47.502-79.36c-0.284-9.387-0.284-18.489 0-28.444 0-4.551 0-9.102 0-13.369 0-3.129-2.56-5.689-5.689-5.689h-59.449c-3.129 0-5.404 2.276-5.689 5.404 0 1.138 0 2.276-0.284 3.413-0.284 2.56-0.284 5.12-0.284 7.68 0.284 5.973 0.569 11.947 0.569 17.92 0.284 13.938 0.569 28.444 3.129 42.382 7.68 43.236 32.711 80.498 69.689 105.529 27.307 18.489 59.449 27.876 91.307 27.876 10.809 0 21.618-1.138 32.427-3.413 44.942-9.671 83.342-35.84 107.52-74.24 23.609-37.262 31.289-81.351 21.049-124.302-17.636-76.516-83.627-128.284-163.556-128.284zM44.373 407.609h80.213c22.756 0 45.511 0 68.267 0 74.24 0 148.48 0 222.72 0h1.707c7.396 0 15.36 0 23.040-0.853 64.284-8.249 114.631-57.458 125.44-122.88 9.956-60.302-23.609-124.018-79.929-151.609-58.027-28.444-126.293-15.644-170.098 31.858-29.298 31.858-41.813 70.542-38.4 118.329 0.284 2.844 2.56 5.404 5.689 5.404h59.449c3.129 0 5.689-2.56 5.689-5.689 0-2.56 0-5.12 0-7.396 0-4.551 0-9.102 0-13.369 1.422-31.573 16.213-53.76 44.089-65.707 28.16-12.516 55.182-8.533 78.222 11.662 23.609 20.48 31.289 46.364 22.756 76.8-9.387 33.564-37.831 53.476-76.231 53.476-86.471 0-172.942 0-259.413 0h-113.493c-3.129 0-5.689 2.56-5.689 5.689v59.449c0.284 2.276 2.56 4.836 5.973 4.836z"></path>
</svg>
